Coordinates
version=1
nRows=11
nColumns=40
inDegrees=yes

Units are S.I. units (second, meters, Newtons, ...)
Angles are in degrees.

endheader
time	pelvis_tilt	pelvis_list	pelvis_rotation	pelvis_tx	pelvis_ty	pelvis_tz	hip_flexion_r	hip_adduction_r	hip_rotation_r	knee_angle_r	knee_angle_r_beta	ankle_angle_r	subtalar_angle_r	mtp_angle_r	hip_flexion_l	hip_adduction_l	hip_rotation_l	knee_angle_l	knee_angle_l_beta	ankle_angle_l	subtalar_angle_l	mtp_angle_l	lumbar_extension	lumbar_bending	lumbar_rotation	arm_flex_r	arm_add_r	arm_rot_r	elbow_flex_r	pro_sup_r	wrist_flex_r	wrist_dev_r	arm_flex_l	arm_add_l	arm_rot_l	elbow_flex_l	pro_sup_l	wrist_flex_l	wrist_dev_l
      4.45500000	     -3.00939920	     -5.20039407	     -3.07974176	      0.91649399	      0.92256274	      0.53037087	     20.89607070	      2.34449406	    -16.05009650	     19.45621790	     19.45621790	      4.22645425	     -0.68522362	     -4.48617615	      6.62007449	    -11.93344267	     -7.66990930	     45.09888529	     45.09888529	     11.57281586	    -17.14864864	     -5.25270588	    -12.21298032	      8.72443652	      1.35024760	     -2.62364313	    -12.08546786	     -7.60483177	     28.49407034	     45.93293710	      0.00000000	      0.00000000	      3.22158049	    -12.81533819	     -9.77564332	     88.76117595	     47.44727303	      0.00000000	      0.00000000
      4.46685714	     -3.05882841	     -5.37314958	     -2.73689792	      0.91542477	      0.92402577	      0.53232341	     19.95183331	      2.46607598	    -17.31166497	     18.71495590	     18.71495590	      4.64877484	      1.21265474	     -5.19205643	      9.01815173	    -12.52805471	     -6.92809447	     49.18709077	     49.18709077	     11.69521390	    -17.46008304	     -0.39073831	    -12.30053726	      8.99257519	      1.55014576	     -0.38154742	    -12.44294805	     -7.01508359	     28.65716367	     45.92084807	      0.00000000	      0.00000000	      2.60593131	    -12.06345781	     -9.44672308	     85.64101265	     47.41672264	      0.00000000	      0.00000000
      4.47871429	     -3.20063907	     -5.58278021	     -2.43421767	      0.91409206	      0.92520873	      0.53435859	     19.12462941	      2.76218850	    -18.14303249	     17.90773891	     17.90773891	      4.91316017	      2.39062374	     -5.53409484	     11.57658827	    -13.16077029	     -6.25706319	     53.01772413	     53.01772413	     12.08810662	    -17.61036446	      4.64355777	    -12.31128560	      9.27738236	      1.86297778	      1.67995139	    -12.86579274	     -6.38673175	     29.28497293	     45.89038243	      0.00000000	      0.00000000	      1.70151276	    -11.46787205	     -8.80970302	     83.41274858	     47.39740021	      0.00000000	      0.00000000
      4.49057143	     -3.28371972	     -5.85969024	     -2.19116778	      0.91269788	      0.92622247	      0.53654183	     18.30973299	      3.20889444	    -18.65356728	     17.20618819	     17.20618819	      5.25149750	      3.05410363	     -5.60461918	     13.85403731	    -14.00329018	     -5.97779235	     56.07360209	     56.07360209	     11.07675171	    -18.07672628	      5.10862373	    -12.45877104	      9.55753361	      2.14193208	      3.81117381	    -13.24792850	     -6.38353277	     30.14909412	     45.87484067	      0.00000000	      0.00000000	      0.46708258	    -10.94570585	     -8.27863983	     82.08536517	     47.33885787	      0.00000000	      0.00000000
      4.50242857	     -3.39498467	     -5.96062459	     -1.93459150	      0.91126105	      0.92729220	      0.53838511	     17.46884745	      3.36922416	    -19.65586176	     16.42161334	     16.42161334	      5.46781839	      4.74095503	     -5.98023348	     16.26420191	    -14.45660901	     -5.49420690	     58.92415443	     58.92415443	     11.78286906	    -18.11830599	      9.52069355	    -12.44386231	      9.73721136	      2.49225705	      5.95342773	    -13.73427958	     -5.62798465	     30.73574729	     45.83472977	      0.00000000	      0.00000000	      0.05050211	    -10.37932015	     -7.65406823	     78.12225269	     47.27741887	      0.00000000	      0.00000000
      4.51428571	     -3.45826867	     -6.11268691	     -1.72100566	      0.90972307	      0.92819153	      0.54040220	     16.65494754	      3.69655224	    -20.12143357	     15.71855288	     15.71855288	      5.72216359	      5.53779208	     -6.09569785	     18.49050212	    -15.06564858	     -5.24107711	     61.14441459	     61.14441459	     11.74255709	    -18.27156787	     11.09392919	    -12.55883386	      9.89027981	      2.68397521	      8.18497658	    -14.12265748	     -5.21159479	     31.71522621	     45.79788230	      0.00000000	      0.00000000	     -0.89667489	    -10.11748058	     -6.97657108	     75.62346805	     47.21872800	      0.00000000	      0.00000000
      4.52614286	     -3.55095650	     -6.26182329	     -1.53690483	      0.90813012	      0.92888403	      0.54240424	     15.94375588	      4.04353201	    -20.41748675	     15.11402395	     15.11402395	      5.99624478	      6.06239839	     -6.14563651	     20.64552895	    -15.66567814	     -5.06581974	     62.79809872	     62.79809872	     11.53051569	    -18.43909756	     11.35445096	    -12.65642106	     10.00168369	      2.75663175	     10.46799084	    -14.42670168	     -5.14547635	     32.71415083	     45.77452109	      0.00000000	      0.00000000	     -2.09706947	     -9.85023083	     -6.44089203	     73.65053711	     47.14861471	      0.00000000	      0.00000000
      4.53800000	     -3.55614494	     -6.26376590	     -1.39643822	      0.90654731	      0.92975067	      0.54424408	     15.16766358	      4.19895054	    -20.77685501	     14.57237285	     14.57237285	      6.22818203	      6.83848397	     -6.39055693	     22.58673221	    -16.03314069	     -4.97915222	     63.91423488	     63.91423488	     11.83501709	    -18.52989322	     12.64425165	    -12.80251720	      9.99359558	      3.23662532	     12.70212929	    -14.97686388	     -4.49968952	     33.41362112	     45.73440877	      0.00000000	      0.00000000	     -2.30685079	     -9.38133070	     -5.74073063	     69.47823040	     47.05928068	      0.00000000	      0.00000000
      4.54985714	     -3.60458973	     -6.30148732	     -1.24585284	      0.90492167	      0.93036435	      0.54608027	     14.48042904	      4.43537319	    -20.89082817	     14.07052297	     14.07052297	      6.49460589	      7.13114570	     -6.45102771	     24.49538145	    -16.43308692	     -4.89984723	     64.51898502	     64.51898502	     11.91867998	    -18.60047298	     12.84933739	    -12.92932814	      9.97150639	      3.22421380	     15.09320441	    -15.21078865	     -4.35140415	     34.58068437	     45.70054945	      0.00000000	      0.00000000	     -3.43629672	     -9.22271752	     -5.15774954	     67.11022500	     46.98317690	      0.00000000	      0.00000000
      4.56171429	     -3.62331979	     -6.27516502	     -1.11614839	      0.90328256	      0.93098638	      0.54773542	     13.80999666	      4.57863046	    -20.98420713	     13.65254467	     13.65254467	      6.74977764	      7.43511442	     -6.67597083	     26.25900503	    -16.69346352	     -4.85084294	     64.63422157	     64.63422157	     12.18866886	    -18.64071255	     13.46808589	    -13.05629366	      9.92711742	      3.74227692	     17.15631079	    -15.82108926	     -3.60243720	     35.62848156	     45.64143748	      0.00000000	      0.00000000	     -3.52416676	     -8.79554921	     -4.41330771	     62.74948539	     46.89070525	      0.00000000	      0.00000000
      4.57357143	     -3.61789960	     -6.23860753	     -0.95487560	      0.90169861	      0.93152807	      0.54931138	     13.12177353	      4.71979467	    -21.00217105	     13.24825485	     13.24825485	      7.04494056	      7.56295608	     -6.75800076	     27.86507660	    -16.90673613	     -4.82280814	     64.24082612	     64.24082612	     12.30321064	    -18.68266370	     13.61832980	    -13.21594861	      9.81763499	      3.62731977	     19.52233141	    -15.98976620	     -3.36540048	     37.04061531	     45.59423019	      0.00000000	      0.00000000	     -4.49544970	     -8.66831698	     -3.87104670	     60.00652695	     46.81429386	      0.00000000	      0.00000000
